G04 Layer_Color=16711935*
%FSLAX44Y44*%
%MOMM*%
G71*
G01*
G75*
%ADD33C,0.2000*%
%ADD45C,1.4000*%
%ADD47C,1.8000*%
%ADD50C,1.5000*%
%ADD51C,1.6000*%
%ADD58C,1.3000*%
%ADD71R,0.3000X0.3000*%
%ADD80R,1.5000X1.3000*%
%ADD81R,1.3000X1.5000*%
G04:AMPARAMS|DCode=82|XSize=1.2mm|YSize=1.72mm|CornerRadius=0.35mm|HoleSize=0mm|Usage=FLASHONLY|Rotation=270.000|XOffset=0mm|YOffset=0mm|HoleType=Round|Shape=RoundedRectangle|*
%AMROUNDEDRECTD82*
21,1,1.2000,1.0200,0,0,270.0*
21,1,0.5000,1.7200,0,0,270.0*
1,1,0.7000,-0.5100,-0.2500*
1,1,0.7000,-0.5100,0.2500*
1,1,0.7000,0.5100,0.2500*
1,1,0.7000,0.5100,-0.2500*
%
%ADD82ROUNDEDRECTD82*%
G04:AMPARAMS|DCode=95|XSize=1.2mm|YSize=1.72mm|CornerRadius=0.35mm|HoleSize=0mm|Usage=FLASHONLY|Rotation=180.000|XOffset=0mm|YOffset=0mm|HoleType=Round|Shape=RoundedRectangle|*
%AMROUNDEDRECTD95*
21,1,1.2000,1.0200,0,0,180.0*
21,1,0.5000,1.7200,0,0,180.0*
1,1,0.7000,-0.2500,0.5100*
1,1,0.7000,0.2500,0.5100*
1,1,0.7000,0.2500,-0.5100*
1,1,0.7000,-0.2500,-0.5100*
%
%ADD95ROUNDEDRECTD95*%
%ADD98O,1.7000X0.9600*%
G04:AMPARAMS|DCode=99|XSize=0.96mm|YSize=1.7mm|CornerRadius=0.29mm|HoleSize=0mm|Usage=FLASHONLY|Rotation=270.000|XOffset=0mm|YOffset=0mm|HoleType=Round|Shape=RoundedRectangle|*
%AMROUNDEDRECTD99*
21,1,0.9600,1.1200,0,0,270.0*
21,1,0.3800,1.7000,0,0,270.0*
1,1,0.5800,-0.5600,-0.1900*
1,1,0.5800,-0.5600,0.1900*
1,1,0.5800,0.5600,0.1900*
1,1,0.5800,0.5600,-0.1900*
%
%ADD99ROUNDEDRECTD99*%
%ADD100C,2.6000*%
G04:AMPARAMS|DCode=101|XSize=2.6mm|YSize=2.6mm|CornerRadius=0.7mm|HoleSize=0mm|Usage=FLASHONLY|Rotation=0.000|XOffset=0mm|YOffset=0mm|HoleType=Round|Shape=RoundedRectangle|*
%AMROUNDEDRECTD101*
21,1,2.6000,1.2000,0,0,0.0*
21,1,1.2000,2.6000,0,0,0.0*
1,1,1.4000,0.6000,-0.6000*
1,1,1.4000,-0.6000,-0.6000*
1,1,1.4000,-0.6000,0.6000*
1,1,1.4000,0.6000,0.6000*
%
%ADD101ROUNDEDRECTD101*%
%ADD102C,2.2000*%
G04:AMPARAMS|DCode=103|XSize=2.2mm|YSize=2.2mm|CornerRadius=0.6mm|HoleSize=0mm|Usage=FLASHONLY|Rotation=0.000|XOffset=0mm|YOffset=0mm|HoleType=Round|Shape=RoundedRectangle|*
%AMROUNDEDRECTD103*
21,1,2.2000,1.0000,0,0,0.0*
21,1,1.0000,2.2000,0,0,0.0*
1,1,1.2000,0.5000,-0.5000*
1,1,1.2000,-0.5000,-0.5000*
1,1,1.2000,-0.5000,0.5000*
1,1,1.2000,0.5000,0.5000*
%
%ADD103ROUNDEDRECTD103*%
G04:AMPARAMS|DCode=104|XSize=2mm|YSize=2mm|CornerRadius=0.55mm|HoleSize=0mm|Usage=FLASHONLY|Rotation=90.000|XOffset=0mm|YOffset=0mm|HoleType=Round|Shape=RoundedRectangle|*
%AMROUNDEDRECTD104*
21,1,2.0000,0.9000,0,0,90.0*
21,1,0.9000,2.0000,0,0,90.0*
1,1,1.1000,0.4500,0.4500*
1,1,1.1000,0.4500,-0.4500*
1,1,1.1000,-0.4500,-0.4500*
1,1,1.1000,-0.4500,0.4500*
%
%ADD104ROUNDEDRECTD104*%
%ADD105C,2.0000*%
G04:AMPARAMS|DCode=106|XSize=2mm|YSize=2mm|CornerRadius=0.55mm|HoleSize=0mm|Usage=FLASHONLY|Rotation=0.000|XOffset=0mm|YOffset=0mm|HoleType=Round|Shape=RoundedRectangle|*
%AMROUNDEDRECTD106*
21,1,2.0000,0.9000,0,0,0.0*
21,1,0.9000,2.0000,0,0,0.0*
1,1,1.1000,0.4500,-0.4500*
1,1,1.1000,-0.4500,-0.4500*
1,1,1.1000,-0.4500,0.4500*
1,1,1.1000,0.4500,0.4500*
%
%ADD106ROUNDEDRECTD106*%
G04:AMPARAMS|DCode=107|XSize=1.7mm|YSize=1.7mm|CornerRadius=0.475mm|HoleSize=0mm|Usage=FLASHONLY|Rotation=180.000|XOffset=0mm|YOffset=0mm|HoleType=Round|Shape=RoundedRectangle|*
%AMROUNDEDRECTD107*
21,1,1.7000,0.7500,0,0,180.0*
21,1,0.7500,1.7000,0,0,180.0*
1,1,0.9500,-0.3750,0.3750*
1,1,0.9500,0.3750,0.3750*
1,1,0.9500,0.3750,-0.3750*
1,1,0.9500,-0.3750,-0.3750*
%
%ADD107ROUNDEDRECTD107*%
%ADD108C,1.7000*%
%ADD109R,1.8000X1.8000*%
%ADD110C,3.4000*%
%ADD111R,1.4000X1.4000*%
%ADD112C,6.7000*%
%ADD113R,1.5000X1.5000*%
%ADD114C,1.8900*%
%ADD115R,1.8900X1.8900*%
%ADD116C,4.9600*%
%ADD117R,1.8000X1.8000*%
%ADD118C,1.6080*%
%ADD119R,1.6080X1.6080*%
G04:AMPARAMS|DCode=120|XSize=2.2mm|YSize=3.4mm|CornerRadius=0mm|HoleSize=0mm|Usage=FLASHONLY|Rotation=90.000|XOffset=0mm|YOffset=0mm|HoleType=Round|Shape=Octagon|*
%AMOCTAGOND120*
4,1,8,-1.7000,-0.5500,-1.7000,0.5500,-1.1500,1.1000,1.1500,1.1000,1.7000,0.5500,1.7000,-0.5500,1.1500,-1.1000,-1.1500,-1.1000,-1.7000,-0.5500,0.0*
%
%ADD120OCTAGOND120*%

G04:AMPARAMS|DCode=121|XSize=1.2mm|YSize=1.65mm|CornerRadius=0.35mm|HoleSize=0mm|Usage=FLASHONLY|Rotation=90.000|XOffset=0mm|YOffset=0mm|HoleType=Round|Shape=RoundedRectangle|*
%AMROUNDEDRECTD121*
21,1,1.2000,0.9500,0,0,90.0*
21,1,0.5000,1.6500,0,0,90.0*
1,1,0.7000,0.4750,0.2500*
1,1,0.7000,0.4750,-0.2500*
1,1,0.7000,-0.4750,-0.2500*
1,1,0.7000,-0.4750,0.2500*
%
%ADD121ROUNDEDRECTD121*%
G04:AMPARAMS|DCode=122|XSize=0.96mm|YSize=1.7mm|CornerRadius=0.29mm|HoleSize=0mm|Usage=FLASHONLY|Rotation=180.000|XOffset=0mm|YOffset=0mm|HoleType=Round|Shape=RoundedRectangle|*
%AMROUNDEDRECTD122*
21,1,0.9600,1.1200,0,0,180.0*
21,1,0.3800,1.7000,0,0,180.0*
1,1,0.5800,-0.1900,0.5600*
1,1,0.5800,0.1900,0.5600*
1,1,0.5800,0.1900,-0.5600*
1,1,0.5800,-0.1900,-0.5600*
%
%ADD122ROUNDEDRECTD122*%
%ADD123O,0.9600X1.7000*%
D33*
X1426250Y269750D02*
Y283745D01*
X1419252D01*
X1416920Y281413D01*
Y276748D01*
X1419252Y274415D01*
X1426250D01*
X1402924Y281413D02*
X1405257Y283745D01*
X1409922D01*
X1412254Y281413D01*
Y279080D01*
X1409922Y276748D01*
X1405257D01*
X1402924Y274415D01*
Y272083D01*
X1405257Y269750D01*
X1409922D01*
X1412254Y272083D01*
X1398259Y281413D02*
X1395927Y283745D01*
X1391261D01*
X1388929Y281413D01*
Y272083D01*
X1391261Y269750D01*
X1395927D01*
X1398259Y272083D01*
Y281413D01*
X1384264D02*
X1381931Y283745D01*
X1377266D01*
X1374933Y281413D01*
Y272083D01*
X1377266Y269750D01*
X1381931D01*
X1384264Y272083D01*
Y281413D01*
X1370268D02*
X1367935Y283745D01*
X1363270D01*
X1360938Y281413D01*
Y272083D01*
X1363270Y269750D01*
X1367935D01*
X1370268Y272083D01*
Y281413D01*
X1356273D02*
X1353940Y283745D01*
X1349275D01*
X1346942Y281413D01*
Y272083D01*
X1349275Y269750D01*
X1353940D01*
X1356273Y272083D01*
Y281413D01*
X1342277D02*
X1339945Y283745D01*
X1335279D01*
X1332947Y281413D01*
Y272083D01*
X1335279Y269750D01*
X1339945D01*
X1342277Y272083D01*
Y281413D01*
X1328282D02*
X1325949Y283745D01*
X1321284D01*
X1318951Y281413D01*
Y272083D01*
X1321284Y269750D01*
X1325949D01*
X1328282Y272083D01*
Y281413D01*
D45*
X1248222Y1105154D02*
D03*
D47*
X1504442Y1113536D02*
D03*
X1517142Y1138936D02*
D03*
X1529842Y1113536D02*
D03*
X1344168D02*
D03*
X1356868Y1138936D02*
D03*
X1369568Y1113536D02*
D03*
X1621028Y1083818D02*
D03*
X1646428Y1096518D02*
D03*
X1621028Y1109218D02*
D03*
D50*
X1493652Y921832D02*
D03*
Y941832D02*
D03*
X1513652Y921832D02*
D03*
Y941832D02*
D03*
X1533652Y921832D02*
D03*
D51*
X1418500Y319750D02*
D03*
X1426500Y370750D02*
D03*
D58*
X1489964Y1006602D02*
D03*
X1381238Y849108D02*
D03*
X1371600Y861540D02*
D03*
X1350772Y861798D02*
D03*
X1361238Y849578D02*
D03*
X1100328Y358140D02*
D03*
Y337566D02*
D03*
Y316992D02*
D03*
Y296418D02*
D03*
X1559814Y1086358D02*
D03*
X1560068Y999744D02*
D03*
X1477264Y1063752D02*
D03*
X1602232Y402336D02*
D03*
X1522476Y737870D02*
D03*
X1605026Y729488D02*
D03*
X1585976Y729234D02*
D03*
X1535176Y728980D02*
D03*
X1123188Y1007110D02*
D03*
X1072134Y950214D02*
D03*
Y915924D02*
D03*
Y934720D02*
D03*
X1189990Y983488D02*
D03*
X1190244Y1007110D02*
D03*
X1372870Y1051560D02*
D03*
X1341250Y653000D02*
D03*
X1300000Y767500D02*
D03*
X1365504Y812546D02*
D03*
X1509776Y729742D02*
D03*
X1598676Y633476D02*
D03*
X1560576Y728472D02*
D03*
X1440688Y695198D02*
D03*
X1456238Y692602D02*
D03*
X1346238Y694982D02*
D03*
X1335024Y762856D02*
D03*
X1334718Y787856D02*
D03*
X1334750Y722856D02*
D03*
X1086866Y1251712D02*
D03*
X1145540Y1251662D02*
D03*
X1102106Y651510D02*
D03*
X1255014Y840232D02*
D03*
X1266952Y770636D02*
D03*
X1074420Y1018032D02*
D03*
X1553500Y624250D02*
D03*
X1473750Y596750D02*
D03*
X1293856Y717856D02*
D03*
X1202500Y995426D02*
D03*
X1202250Y972058D02*
D03*
D71*
X1234146Y792432D02*
D03*
X1240396D02*
D03*
D80*
X1456500Y632250D02*
D03*
Y655250D02*
D03*
X1511554Y1025468D02*
D03*
Y1002468D02*
D03*
X1376426Y972890D02*
D03*
Y949890D02*
D03*
X1211072Y1107878D02*
D03*
Y1130878D02*
D03*
X1242568Y1130738D02*
D03*
Y1153738D02*
D03*
X1272286Y1130738D02*
D03*
Y1153738D02*
D03*
X1404112Y972890D02*
D03*
Y949890D02*
D03*
X1320800Y972890D02*
D03*
Y949890D02*
D03*
X1240536Y828618D02*
D03*
Y805618D02*
D03*
Y755072D02*
D03*
Y778072D02*
D03*
X1348740Y972890D02*
D03*
Y949890D02*
D03*
X1634998Y568776D02*
D03*
Y545776D02*
D03*
X1635252Y491420D02*
D03*
Y514420D02*
D03*
D81*
X1245500Y1080000D02*
D03*
X1268500Y1080000D02*
D03*
X1582744Y961898D02*
D03*
X1559744D02*
D03*
X1322508Y1027430D02*
D03*
X1345508D02*
D03*
X1547552Y1170432D02*
D03*
X1570552D02*
D03*
X1373194Y763016D02*
D03*
X1350194D02*
D03*
X1373448Y790702D02*
D03*
X1350448D02*
D03*
X1387164Y695198D02*
D03*
X1364164D02*
D03*
X1372940Y722884D02*
D03*
X1349940D02*
D03*
X1441634Y1004062D02*
D03*
X1464634D02*
D03*
X1245292Y1050036D02*
D03*
X1268292D02*
D03*
X1570412Y1113790D02*
D03*
X1593412D02*
D03*
X1538000Y680500D02*
D03*
X1561000D02*
D03*
X1593412Y1143000D02*
D03*
X1570412D02*
D03*
X1517072Y709168D02*
D03*
X1540072D02*
D03*
X1584636D02*
D03*
X1607636D02*
D03*
X1191698Y718566D02*
D03*
X1214698D02*
D03*
D82*
X1441196Y743472D02*
D03*
Y713472D02*
D03*
D95*
X1621000Y1026000D02*
D03*
X1651000D02*
D03*
X1334784Y853694D02*
D03*
X1304784D02*
D03*
D98*
X1535684Y1060958D02*
D03*
Y1073658D02*
D03*
Y1086358D02*
D03*
X1591564D02*
D03*
Y1073658D02*
D03*
Y1060958D02*
D03*
Y1048258D02*
D03*
Y1012698D02*
D03*
Y999998D02*
D03*
Y987298D02*
D03*
X1535684D02*
D03*
Y999998D02*
D03*
Y1012698D02*
D03*
Y1025398D02*
D03*
D99*
Y1048258D02*
D03*
X1591564Y1025398D02*
D03*
D100*
X1498092Y333638D02*
D03*
X1590548Y333638D02*
D03*
D101*
X1498092Y278638D02*
D03*
X1590548D02*
D03*
D102*
X980440Y495756D02*
D03*
Y470408D02*
D03*
X981202Y714196D02*
D03*
Y688848D02*
D03*
X980694Y927048D02*
D03*
Y901700D02*
D03*
X980440Y1092148D02*
D03*
Y1066800D02*
D03*
D103*
Y521104D02*
D03*
X981202Y739544D02*
D03*
X980694Y952396D02*
D03*
X980440Y1117496D02*
D03*
D104*
X1169268Y747788D02*
D03*
D105*
X1214268D02*
D03*
X1169268Y812788D02*
D03*
X1214268D02*
D03*
X1158760Y868532D02*
D03*
X1223760Y913532D02*
D03*
Y868532D02*
D03*
X1400556Y999236D02*
D03*
Y923036D02*
D03*
X1375156Y999236D02*
D03*
Y923036D02*
D03*
X1349756D02*
D03*
X1324356D02*
D03*
X1349756Y999236D02*
D03*
X1324356D02*
D03*
D106*
X1158760Y913532D02*
D03*
D107*
X1256030Y1209802D02*
D03*
D108*
X1230630Y1184402D02*
D03*
X1256030D02*
D03*
X1230630Y1209802D02*
D03*
X1384300Y441744D02*
D03*
Y491744D02*
D03*
X1103630Y509652D02*
D03*
X1103884Y544652D02*
D03*
D109*
X1542542Y1138936D02*
D03*
X1382268D02*
D03*
D110*
X1485392Y1202436D02*
D03*
X1561592D02*
D03*
X1325118D02*
D03*
X1401318D02*
D03*
X1709928Y1052068D02*
D03*
Y1128268D02*
D03*
D111*
X1268222Y1105154D02*
D03*
D112*
X980194Y307006D02*
D03*
X979940Y1216994D02*
D03*
X1730222Y307006D02*
D03*
X1730210Y1217060D02*
D03*
D113*
X1533652Y941832D02*
D03*
D114*
X1667784Y572290D02*
D03*
Y544590D02*
D03*
Y489190D02*
D03*
Y516890D02*
D03*
X1696184Y475340D02*
D03*
Y503040D02*
D03*
Y530740D02*
D03*
Y558440D02*
D03*
D115*
X1667784Y461490D02*
D03*
D116*
X1681984Y391940D02*
D03*
Y641840D02*
D03*
X1663954Y721868D02*
D03*
Y972058D02*
D03*
D117*
X1646428Y1071118D02*
D03*
D118*
X1689354Y798939D02*
D03*
Y821799D02*
D03*
Y844659D02*
D03*
Y867519D02*
D03*
Y890379D02*
D03*
X1663954Y810369D02*
D03*
Y833229D02*
D03*
Y856089D02*
D03*
Y878949D02*
D03*
Y901809D02*
D03*
X1638554Y798939D02*
D03*
Y821799D02*
D03*
Y844659D02*
D03*
Y867519D02*
D03*
D119*
Y890379D02*
D03*
D120*
X1337606Y1065022D02*
D03*
D121*
X1310106Y1080022D02*
D03*
Y1065022D02*
D03*
Y1050022D02*
D03*
D122*
X1451864Y1084326D02*
D03*
X1410970Y1029716D02*
D03*
D123*
X1464564Y1084326D02*
D03*
X1477264D02*
D03*
X1489964D02*
D03*
Y1028446D02*
D03*
X1477264D02*
D03*
X1464564D02*
D03*
X1451864D02*
D03*
X1398270Y1029716D02*
D03*
X1385570D02*
D03*
X1372870D02*
D03*
Y1085596D02*
D03*
X1385570D02*
D03*
X1398270D02*
D03*
X1410970D02*
D03*
M02*
