G04 Layer_Physical_Order=1*
G04 Layer_Color=255*
%FSLAX44Y44*%
%MOMM*%
G71*
G01*
G75*
G04:AMPARAMS|DCode=10|XSize=1.75mm|YSize=1.5mm|CornerRadius=0.375mm|HoleSize=0mm|Usage=FLASHONLY|Rotation=0.000|XOffset=0mm|YOffset=0mm|HoleType=Round|Shape=RoundedRectangle|*
%AMROUNDEDRECTD10*
21,1,1.7500,0.7500,0,0,0.0*
21,1,1.0000,1.5000,0,0,0.0*
1,1,0.7500,0.5000,-0.3750*
1,1,0.7500,-0.5000,-0.3750*
1,1,0.7500,-0.5000,0.3750*
1,1,0.7500,0.5000,0.3750*
%
%ADD10ROUNDEDRECTD10*%
G04:AMPARAMS|DCode=11|XSize=0.91mm|YSize=2.16mm|CornerRadius=0.2275mm|HoleSize=0mm|Usage=FLASHONLY|Rotation=180.000|XOffset=0mm|YOffset=0mm|HoleType=Round|Shape=RoundedRectangle|*
%AMROUNDEDRECTD11*
21,1,0.9100,1.7050,0,0,180.0*
21,1,0.4550,2.1600,0,0,180.0*
1,1,0.4550,-0.2275,0.8525*
1,1,0.4550,0.2275,0.8525*
1,1,0.4550,0.2275,-0.8525*
1,1,0.4550,-0.2275,-0.8525*
%
%ADD11ROUNDEDRECTD11*%
G04:AMPARAMS|DCode=12|XSize=10.8mm|YSize=11.41mm|CornerRadius=2.7mm|HoleSize=0mm|Usage=FLASHONLY|Rotation=180.000|XOffset=0mm|YOffset=0mm|HoleType=Round|Shape=RoundedRectangle|*
%AMROUNDEDRECTD12*
21,1,10.8000,6.0100,0,0,180.0*
21,1,5.4000,11.4100,0,0,180.0*
1,1,5.4000,-2.7000,3.0050*
1,1,5.4000,2.7000,3.0050*
1,1,5.4000,2.7000,-3.0050*
1,1,5.4000,-2.7000,-3.0050*
%
%ADD12ROUNDEDRECTD12*%
%ADD13R,1.3000X1.1000*%
%ADD14R,1.1000X1.3000*%
G04:AMPARAMS|DCode=15|XSize=1mm|YSize=1.52mm|CornerRadius=0.25mm|HoleSize=0mm|Usage=FLASHONLY|Rotation=270.000|XOffset=0mm|YOffset=0mm|HoleType=Round|Shape=RoundedRectangle|*
%AMROUNDEDRECTD15*
21,1,1.0000,1.0200,0,0,270.0*
21,1,0.5000,1.5200,0,0,270.0*
1,1,0.5000,-0.5100,-0.2500*
1,1,0.5000,-0.5100,0.2500*
1,1,0.5000,0.5100,0.2500*
1,1,0.5000,0.5100,-0.2500*
%
%ADD15ROUNDEDRECTD15*%
G04:AMPARAMS|DCode=16|XSize=1.2mm|YSize=1.7mm|CornerRadius=0.3mm|HoleSize=0mm|Usage=FLASHONLY|Rotation=0.000|XOffset=0mm|YOffset=0mm|HoleType=Round|Shape=RoundedRectangle|*
%AMROUNDEDRECTD16*
21,1,1.2000,1.1000,0,0,0.0*
21,1,0.6000,1.7000,0,0,0.0*
1,1,0.6000,0.3000,-0.5500*
1,1,0.6000,-0.3000,-0.5500*
1,1,0.6000,-0.3000,0.5500*
1,1,0.6000,0.3000,0.5500*
%
%ADD16ROUNDEDRECTD16*%
G04:AMPARAMS|DCode=17|XSize=2.2mm|YSize=1.4mm|CornerRadius=0.35mm|HoleSize=0mm|Usage=FLASHONLY|Rotation=270.000|XOffset=0mm|YOffset=0mm|HoleType=Round|Shape=RoundedRectangle|*
%AMROUNDEDRECTD17*
21,1,2.2000,0.7000,0,0,270.0*
21,1,1.5000,1.4000,0,0,270.0*
1,1,0.7000,-0.3500,-0.7500*
1,1,0.7000,-0.3500,0.7500*
1,1,0.7000,0.3500,0.7500*
1,1,0.7000,0.3500,-0.7500*
%
%ADD17ROUNDEDRECTD17*%
G04:AMPARAMS|DCode=18|XSize=1.3mm|YSize=2.4mm|CornerRadius=0.325mm|HoleSize=0mm|Usage=FLASHONLY|Rotation=180.000|XOffset=0mm|YOffset=0mm|HoleType=Round|Shape=RoundedRectangle|*
%AMROUNDEDRECTD18*
21,1,1.3000,1.7500,0,0,180.0*
21,1,0.6500,2.4000,0,0,180.0*
1,1,0.6500,-0.3250,0.8750*
1,1,0.6500,0.3250,0.8750*
1,1,0.6500,0.3250,-0.8750*
1,1,0.6500,-0.3250,-0.8750*
%
%ADD18ROUNDEDRECTD18*%
%ADD19O,0.6000X2.2000*%
G04:AMPARAMS|DCode=20|XSize=1.75mm|YSize=1.5mm|CornerRadius=0.375mm|HoleSize=0mm|Usage=FLASHONLY|Rotation=270.000|XOffset=0mm|YOffset=0mm|HoleType=Round|Shape=RoundedRectangle|*
%AMROUNDEDRECTD20*
21,1,1.7500,0.7500,0,0,270.0*
21,1,1.0000,1.5000,0,0,270.0*
1,1,0.7500,-0.3750,-0.5000*
1,1,0.7500,-0.3750,0.5000*
1,1,0.7500,0.3750,0.5000*
1,1,0.7500,0.3750,-0.5000*
%
%ADD20ROUNDEDRECTD20*%
G04:AMPARAMS|DCode=21|XSize=2.032mm|YSize=3.302mm|CornerRadius=0.508mm|HoleSize=0mm|Usage=FLASHONLY|Rotation=270.000|XOffset=0mm|YOffset=0mm|HoleType=Round|Shape=RoundedRectangle|*
%AMROUNDEDRECTD21*
21,1,2.0320,2.2860,0,0,270.0*
21,1,1.0160,3.3020,0,0,270.0*
1,1,1.0160,-1.1430,-0.5080*
1,1,1.0160,-1.1430,0.5080*
1,1,1.0160,1.1430,0.5080*
1,1,1.0160,1.1430,-0.5080*
%
%ADD21ROUNDEDRECTD21*%
G04:AMPARAMS|DCode=22|XSize=3.1mm|YSize=3.6mm|CornerRadius=0.775mm|HoleSize=0mm|Usage=FLASHONLY|Rotation=270.000|XOffset=0mm|YOffset=0mm|HoleType=Round|Shape=RoundedRectangle|*
%AMROUNDEDRECTD22*
21,1,3.1000,2.0500,0,0,270.0*
21,1,1.5500,3.6000,0,0,270.0*
1,1,1.5500,-1.0250,-0.7750*
1,1,1.5500,-1.0250,0.7750*
1,1,1.5500,1.0250,0.7750*
1,1,1.5500,1.0250,-0.7750*
%
%ADD22ROUNDEDRECTD22*%
G04:AMPARAMS|DCode=23|XSize=1.2mm|YSize=1.7mm|CornerRadius=0.3mm|HoleSize=0mm|Usage=FLASHONLY|Rotation=270.000|XOffset=0mm|YOffset=0mm|HoleType=Round|Shape=RoundedRectangle|*
%AMROUNDEDRECTD23*
21,1,1.2000,1.1000,0,0,270.0*
21,1,0.6000,1.7000,0,0,270.0*
1,1,0.6000,-0.5500,-0.3000*
1,1,0.6000,-0.5500,0.3000*
1,1,0.6000,0.5500,0.3000*
1,1,0.6000,0.5500,-0.3000*
%
%ADD23ROUNDEDRECTD23*%
G04:AMPARAMS|DCode=24|XSize=2.03mm|YSize=4.57mm|CornerRadius=0.5075mm|HoleSize=0mm|Usage=FLASHONLY|Rotation=180.000|XOffset=0mm|YOffset=0mm|HoleType=Round|Shape=RoundedRectangle|*
%AMROUNDEDRECTD24*
21,1,2.0300,3.5550,0,0,180.0*
21,1,1.0150,4.5700,0,0,180.0*
1,1,1.0150,-0.5075,1.7775*
1,1,1.0150,0.5075,1.7775*
1,1,1.0150,0.5075,-1.7775*
1,1,1.0150,-0.5075,-1.7775*
%
%ADD24ROUNDEDRECTD24*%
G04:AMPARAMS|DCode=25|XSize=2mm|YSize=2.5mm|CornerRadius=0.5mm|HoleSize=0mm|Usage=FLASHONLY|Rotation=270.000|XOffset=0mm|YOffset=0mm|HoleType=Round|Shape=RoundedRectangle|*
%AMROUNDEDRECTD25*
21,1,2.0000,1.5000,0,0,270.0*
21,1,1.0000,2.5000,0,0,270.0*
1,1,1.0000,-0.7500,-0.5000*
1,1,1.0000,-0.7500,0.5000*
1,1,1.0000,0.7500,0.5000*
1,1,1.0000,0.7500,-0.5000*
%
%ADD25ROUNDEDRECTD25*%
G04:AMPARAMS|DCode=26|XSize=3.4mm|YSize=1.95mm|CornerRadius=0.4875mm|HoleSize=0mm|Usage=FLASHONLY|Rotation=90.000|XOffset=0mm|YOffset=0mm|HoleType=Round|Shape=RoundedRectangle|*
%AMROUNDEDRECTD26*
21,1,3.4000,0.9750,0,0,90.0*
21,1,2.4250,1.9500,0,0,90.0*
1,1,0.9750,0.4875,1.2125*
1,1,0.9750,0.4875,-1.2125*
1,1,0.9750,-0.4875,-1.2125*
1,1,0.9750,-0.4875,1.2125*
%
%ADD26ROUNDEDRECTD26*%
G04:AMPARAMS|DCode=27|XSize=1.1mm|YSize=1.95mm|CornerRadius=0.275mm|HoleSize=0mm|Usage=FLASHONLY|Rotation=90.000|XOffset=0mm|YOffset=0mm|HoleType=Round|Shape=RoundedRectangle|*
%AMROUNDEDRECTD27*
21,1,1.1000,1.4000,0,0,90.0*
21,1,0.5500,1.9500,0,0,90.0*
1,1,0.5500,0.7000,0.2750*
1,1,0.5500,0.7000,-0.2750*
1,1,0.5500,-0.7000,-0.2750*
1,1,0.5500,-0.7000,0.2750*
%
%ADD27ROUNDEDRECTD27*%
G04:AMPARAMS|DCode=28|XSize=1mm|YSize=1.52mm|CornerRadius=0.25mm|HoleSize=0mm|Usage=FLASHONLY|Rotation=180.000|XOffset=0mm|YOffset=0mm|HoleType=Round|Shape=RoundedRectangle|*
%AMROUNDEDRECTD28*
21,1,1.0000,1.0200,0,0,180.0*
21,1,0.5000,1.5200,0,0,180.0*
1,1,0.5000,-0.2500,0.5100*
1,1,0.5000,0.2500,0.5100*
1,1,0.5000,0.2500,-0.5100*
1,1,0.5000,-0.2500,-0.5100*
%
%ADD28ROUNDEDRECTD28*%
%ADD29R,0.2500X1.5000*%
%ADD30R,1.5000X0.2500*%
%ADD31O,1.5000X0.7600*%
G04:AMPARAMS|DCode=32|XSize=0.76mm|YSize=1.5mm|CornerRadius=0.19mm|HoleSize=0mm|Usage=FLASHONLY|Rotation=270.000|XOffset=0mm|YOffset=0mm|HoleType=Round|Shape=RoundedRectangle|*
%AMROUNDEDRECTD32*
21,1,0.7600,1.1200,0,0,270.0*
21,1,0.3800,1.5000,0,0,270.0*
1,1,0.3800,-0.5600,-0.1900*
1,1,0.3800,-0.5600,0.1900*
1,1,0.3800,0.5600,0.1900*
1,1,0.3800,0.5600,-0.1900*
%
%ADD32ROUNDEDRECTD32*%
%ADD33C,0.2000*%
%ADD34C,0.4000*%
%ADD35C,0.3000*%
%ADD36C,1.0000*%
%ADD37C,0.8000*%
%ADD38C,2.0000*%
%ADD39C,0.2500*%
%ADD40C,0.9000*%
%ADD41C,2.4000*%
G04:AMPARAMS|DCode=42|XSize=2.4mm|YSize=2.4mm|CornerRadius=0.6mm|HoleSize=0mm|Usage=FLASHONLY|Rotation=0.000|XOffset=0mm|YOffset=0mm|HoleType=Round|Shape=RoundedRectangle|*
%AMROUNDEDRECTD42*
21,1,2.4000,1.2000,0,0,0.0*
21,1,1.2000,2.4000,0,0,0.0*
1,1,1.2000,0.6000,-0.6000*
1,1,1.2000,-0.6000,-0.6000*
1,1,1.2000,-0.6000,0.6000*
1,1,1.2000,0.6000,0.6000*
%
%ADD42ROUNDEDRECTD42*%
%ADD43C,2.0000*%
G04:AMPARAMS|DCode=44|XSize=2mm|YSize=2mm|CornerRadius=0.5mm|HoleSize=0mm|Usage=FLASHONLY|Rotation=0.000|XOffset=0mm|YOffset=0mm|HoleType=Round|Shape=RoundedRectangle|*
%AMROUNDEDRECTD44*
21,1,2.0000,1.0000,0,0,0.0*
21,1,1.0000,2.0000,0,0,0.0*
1,1,1.0000,0.5000,-0.5000*
1,1,1.0000,-0.5000,-0.5000*
1,1,1.0000,-0.5000,0.5000*
1,1,1.0000,0.5000,0.5000*
%
%ADD44ROUNDEDRECTD44*%
%ADD45C,1.4000*%
G04:AMPARAMS|DCode=46|XSize=1.8mm|YSize=1.8mm|CornerRadius=0.45mm|HoleSize=0mm|Usage=FLASHONLY|Rotation=90.000|XOffset=0mm|YOffset=0mm|HoleType=Round|Shape=RoundedRectangle|*
%AMROUNDEDRECTD46*
21,1,1.8000,0.9000,0,0,90.0*
21,1,0.9000,1.8000,0,0,90.0*
1,1,0.9000,0.4500,0.4500*
1,1,0.9000,0.4500,-0.4500*
1,1,0.9000,-0.4500,-0.4500*
1,1,0.9000,-0.4500,0.4500*
%
%ADD46ROUNDEDRECTD46*%
%ADD47C,1.8000*%
G04:AMPARAMS|DCode=48|XSize=1.8mm|YSize=1.8mm|CornerRadius=0.45mm|HoleSize=0mm|Usage=FLASHONLY|Rotation=0.000|XOffset=0mm|YOffset=0mm|HoleType=Round|Shape=RoundedRectangle|*
%AMROUNDEDRECTD48*
21,1,1.8000,0.9000,0,0,0.0*
21,1,0.9000,1.8000,0,0,0.0*
1,1,0.9000,0.4500,-0.4500*
1,1,0.9000,-0.4500,-0.4500*
1,1,0.9000,-0.4500,0.4500*
1,1,0.9000,0.4500,0.4500*
%
%ADD48ROUNDEDRECTD48*%
G04:AMPARAMS|DCode=49|XSize=1.5mm|YSize=1.5mm|CornerRadius=0.375mm|HoleSize=0mm|Usage=FLASHONLY|Rotation=180.000|XOffset=0mm|YOffset=0mm|HoleType=Round|Shape=RoundedRectangle|*
%AMROUNDEDRECTD49*
21,1,1.5000,0.7500,0,0,180.0*
21,1,0.7500,1.5000,0,0,180.0*
1,1,0.7500,-0.3750,0.3750*
1,1,0.7500,0.3750,0.3750*
1,1,0.7500,0.3750,-0.3750*
1,1,0.7500,-0.3750,-0.3750*
%
%ADD49ROUNDEDRECTD49*%
%ADD50C,1.5000*%
%ADD51C,1.6000*%
%ADD52R,1.6000X1.6000*%
%ADD53C,3.2000*%
%ADD54C,1.2000*%
%ADD55R,1.2000X1.2000*%
%ADD56C,6.5000*%
%ADD57R,1.3000X1.3000*%
%ADD58C,1.3000*%
%ADD59C,1.6900*%
%ADD60R,1.6900X1.6900*%
%ADD61C,4.7600*%
%ADD62R,1.6000X1.6000*%
%ADD63C,1.4080*%
%ADD64R,1.4080X1.4080*%
%ADD65C,1.1000*%
D10*
X959154Y1023112D02*
D03*
X997154D02*
D03*
X1496500Y595750D02*
D03*
X1534500D02*
D03*
X1608500D02*
D03*
X1570500D02*
D03*
X1086662Y747776D02*
D03*
X1124662D02*
D03*
X961694Y404622D02*
D03*
X999694D02*
D03*
X961694Y623062D02*
D03*
X999694D02*
D03*
X961694Y832612D02*
D03*
X999694D02*
D03*
D11*
X1130046Y421584D02*
D03*
X1142746D02*
D03*
X1155446D02*
D03*
X1168146D02*
D03*
X1180846D02*
D03*
X1193546D02*
D03*
X1206246D02*
D03*
D12*
X1168146Y328384D02*
D03*
D13*
X1490218Y834574D02*
D03*
Y857574D02*
D03*
X1574038Y834574D02*
D03*
Y857574D02*
D03*
X1546098Y834574D02*
D03*
Y857574D02*
D03*
X1059942Y1079684D02*
D03*
Y1102684D02*
D03*
X1177798D02*
D03*
Y1079684D02*
D03*
X1037590Y994734D02*
D03*
Y971734D02*
D03*
X1066800D02*
D03*
Y994734D02*
D03*
X1117600Y1079684D02*
D03*
Y1102684D02*
D03*
D14*
X963860Y802132D02*
D03*
X986860D02*
D03*
X1114876Y829818D02*
D03*
X1091876D02*
D03*
X1109796Y707898D02*
D03*
X1086796D02*
D03*
X1206062Y456184D02*
D03*
X1183062D02*
D03*
X1609500Y546250D02*
D03*
X1586500D02*
D03*
X1251206Y645160D02*
D03*
X1274206D02*
D03*
X1108640Y968502D02*
D03*
X1131640D02*
D03*
X1091876Y790956D02*
D03*
X1114876D02*
D03*
X1497250Y546250D02*
D03*
X1474250D02*
D03*
X984320Y375412D02*
D03*
X961320D02*
D03*
X984828Y593598D02*
D03*
X961828D02*
D03*
D15*
X1180338Y674384D02*
D03*
Y644384D02*
D03*
X1513332Y833896D02*
D03*
Y803896D02*
D03*
D16*
X1261350Y278638D02*
D03*
X1291350D02*
D03*
D17*
X1254706Y753114D02*
D03*
X1279706D02*
D03*
X1254706Y817114D02*
D03*
X1279706D02*
D03*
D18*
X1244904Y707898D02*
D03*
X1273904D02*
D03*
D19*
X1509776Y656720D02*
D03*
X1522476D02*
D03*
X1535176D02*
D03*
X1547876D02*
D03*
X1560576D02*
D03*
X1573276D02*
D03*
X1585976D02*
D03*
X1598676D02*
D03*
X1509776Y704720D02*
D03*
X1522476D02*
D03*
X1535176D02*
D03*
X1547876D02*
D03*
X1560576D02*
D03*
X1573276D02*
D03*
X1585976D02*
D03*
X1598676D02*
D03*
D20*
X1573530Y793446D02*
D03*
Y755446D02*
D03*
X1547114Y793446D02*
D03*
Y755446D02*
D03*
X1602232Y461214D02*
D03*
Y423214D02*
D03*
X1059942Y1213662D02*
D03*
Y1251662D02*
D03*
X1117346Y1213662D02*
D03*
Y1251662D02*
D03*
X1177798Y1213662D02*
D03*
Y1251662D02*
D03*
D21*
X1495806Y431292D02*
D03*
Y499872D02*
D03*
X1291590Y314960D02*
D03*
Y383540D02*
D03*
D22*
X1258824Y578424D02*
D03*
Y491424D02*
D03*
D23*
X1561592Y461278D02*
D03*
Y431278D02*
D03*
X1073912Y442990D02*
D03*
Y412990D02*
D03*
D24*
X1384300Y511352D02*
D03*
Y422352D02*
D03*
X1103884Y571296D02*
D03*
Y482296D02*
D03*
D25*
X1367500Y278890D02*
D03*
Y324610D02*
D03*
D26*
X1068582Y651510D02*
D03*
D27*
X1132582Y674510D02*
D03*
Y651510D02*
D03*
Y628510D02*
D03*
D28*
X1274150Y676148D02*
D03*
X1244150D02*
D03*
D29*
X1336238Y831856D02*
D03*
X1341238D02*
D03*
X1346238D02*
D03*
X1351238D02*
D03*
X1356238D02*
D03*
X1361238D02*
D03*
X1366238D02*
D03*
X1371238D02*
D03*
X1376238D02*
D03*
X1381238D02*
D03*
X1386238D02*
D03*
X1391238D02*
D03*
X1396238D02*
D03*
X1401238D02*
D03*
X1406238D02*
D03*
X1411238D02*
D03*
X1416238D02*
D03*
X1421238D02*
D03*
X1426238D02*
D03*
X1431238D02*
D03*
X1436238D02*
D03*
X1441238D02*
D03*
X1446238D02*
D03*
X1451238D02*
D03*
X1456238D02*
D03*
Y673856D02*
D03*
X1451238D02*
D03*
X1446238D02*
D03*
X1441238D02*
D03*
X1436238D02*
D03*
X1431238D02*
D03*
X1426238D02*
D03*
X1421238D02*
D03*
X1416238D02*
D03*
X1411238D02*
D03*
X1406238D02*
D03*
X1401238D02*
D03*
X1396238D02*
D03*
X1391238D02*
D03*
X1386238D02*
D03*
X1381238D02*
D03*
X1376238D02*
D03*
X1371238D02*
D03*
X1366238D02*
D03*
X1361238D02*
D03*
X1356238D02*
D03*
X1351238D02*
D03*
X1346238D02*
D03*
X1341238D02*
D03*
X1336238D02*
D03*
D30*
X1475238Y812856D02*
D03*
Y807856D02*
D03*
Y802856D02*
D03*
Y797856D02*
D03*
Y792856D02*
D03*
Y787856D02*
D03*
Y782856D02*
D03*
Y777856D02*
D03*
Y772856D02*
D03*
Y767856D02*
D03*
Y762856D02*
D03*
Y757856D02*
D03*
Y752856D02*
D03*
Y747856D02*
D03*
Y742856D02*
D03*
Y737856D02*
D03*
Y732856D02*
D03*
Y727856D02*
D03*
Y722856D02*
D03*
Y717856D02*
D03*
Y712856D02*
D03*
Y707856D02*
D03*
Y702856D02*
D03*
Y697856D02*
D03*
Y692856D02*
D03*
X1317238D02*
D03*
Y697856D02*
D03*
Y702856D02*
D03*
Y707856D02*
D03*
Y712856D02*
D03*
Y717856D02*
D03*
Y722856D02*
D03*
Y727856D02*
D03*
Y732856D02*
D03*
Y737856D02*
D03*
Y742856D02*
D03*
Y747856D02*
D03*
Y752856D02*
D03*
Y757856D02*
D03*
Y762856D02*
D03*
Y767856D02*
D03*
Y772856D02*
D03*
Y777856D02*
D03*
Y782856D02*
D03*
Y787856D02*
D03*
Y792856D02*
D03*
Y797856D02*
D03*
Y802856D02*
D03*
Y807856D02*
D03*
Y812856D02*
D03*
D31*
X1093724Y994410D02*
D03*
Y1007110D02*
D03*
Y1019810D02*
D03*
Y1032510D02*
D03*
X1149604D02*
D03*
Y1019810D02*
D03*
Y1007110D02*
D03*
D32*
Y994410D02*
D03*
D33*
X1654560Y489190D02*
X1667784D01*
X1519750Y551000D02*
Y637608D01*
X1513750Y549250D02*
Y637500D01*
X1029462Y916432D02*
X1047750Y934720D01*
X1072134D01*
X1036574Y904494D02*
X1048004Y915924D01*
X1072134D01*
X1356238Y830356D02*
Y840354D01*
X1350772Y845820D02*
X1356238Y840354D01*
X1350772Y845820D02*
Y861798D01*
X1381238Y830356D02*
Y849108D01*
X1361238Y830356D02*
Y849578D01*
X1324356Y910590D02*
Y923036D01*
X1396238Y830356D02*
Y868664D01*
X1357360Y907542D02*
X1396238Y868664D01*
X1327404Y907542D02*
X1357360D01*
X1324356Y910590D02*
X1327404Y907542D01*
X1546098Y857574D02*
X1574038D01*
X1490218D02*
X1546098D01*
X1559814Y999998D02*
Y1086358D01*
X1471168Y1057656D02*
X1477264Y1063752D01*
X1378966Y1057656D02*
X1471168D01*
X1372870Y1051560D02*
X1378966Y1057656D01*
X1286510Y1101852D02*
X1613662D01*
X1344168Y1102106D02*
Y1113536D01*
X1268222Y1105154D02*
X1283208D01*
X1286510Y1101852D01*
X1504442Y1102106D02*
Y1113536D01*
X1613662Y1101852D02*
X1621028Y1109218D01*
X1293876Y1125982D02*
X1517396D01*
X1363726Y1113028D02*
X1370076D01*
X1369568Y1113536D02*
Y1125728D01*
X1517396Y1125982D02*
X1529842Y1113536D01*
X1243076Y1176782D02*
X1293876Y1125982D01*
X1382268Y1151890D02*
X1529588D01*
X1313942D02*
X1382268D01*
Y1138936D02*
Y1151890D01*
X1529588D02*
X1542542Y1138936D01*
X1369568Y1113536D02*
X1370076Y1113028D01*
X1590294Y847852D02*
Y905071D01*
X1540830Y914654D02*
X1580711D01*
X1590294Y905071D01*
X1585214Y850138D02*
Y904494D01*
X1579054Y910654D02*
X1585214Y904494D01*
X1524830Y910654D02*
X1579054D01*
X1547684Y953708D02*
X1595882Y905510D01*
X1549341Y957708D02*
X1599882Y907167D01*
X1550998Y961708D02*
X1604010Y908696D01*
X1552655Y965708D02*
X1609090Y909273D01*
X1323958Y953708D02*
X1547684D01*
X1595882Y830765D02*
Y905510D01*
X1325614Y957708D02*
X1549341D01*
X1599882Y832422D02*
Y907167D01*
X1327271Y961708D02*
X1550998D01*
X1604010Y848360D02*
Y908696D01*
X1328928Y965708D02*
X1552655D01*
X1609090Y870712D02*
Y909273D01*
X1305607Y972058D02*
X1323958Y953708D01*
X1293553Y995426D02*
X1327271Y961708D01*
X1287526Y1007110D02*
X1328928Y965708D01*
X1702925Y796399D02*
Y875175D01*
X1699151Y878949D02*
X1702925Y875175D01*
X1663954Y878949D02*
X1699151D01*
X1495806Y431292D02*
X1561578D01*
X1561656Y461214D02*
X1602232D01*
X1665162Y758636D02*
X1702925Y796399D01*
X1605026Y729488D02*
Y753872D01*
X1609790Y758636D01*
X1665162D01*
X1676545Y856089D02*
X1678876Y853758D01*
X1663954Y856089D02*
X1676545D01*
X1585976Y729234D02*
Y758190D01*
X1590422Y762636D01*
X1522476Y737870D02*
Y767334D01*
X1533398Y778256D01*
X1663954Y833229D02*
X1673751D01*
X1674876Y832104D01*
X1535176Y728980D02*
Y769620D01*
X1538732Y773176D01*
X1612283Y867519D02*
X1638554D01*
X1609090Y870712D02*
X1612283Y867519D01*
X1607711Y844659D02*
X1638554D01*
X1604010Y848360D02*
X1607711Y844659D01*
X1627708Y798939D02*
X1638554D01*
X1595882Y830765D02*
X1627708Y798939D01*
X1610505Y821799D02*
X1638554D01*
X1599882Y832422D02*
X1610505Y821799D01*
X1190244Y1007110D02*
X1287526D01*
X1190244Y1007110D02*
X1190244Y1007110D01*
X1678446Y544590D02*
X1682242Y548386D01*
X1668874Y544590D02*
X1678446D01*
X1522476Y704720D02*
Y737870D01*
X1598676Y729488D02*
X1605026D01*
X1585976Y704720D02*
Y729234D01*
X1598676Y704720D02*
Y729488D01*
X1178052Y955432D02*
Y1075110D01*
Y955432D02*
X1182254Y951230D01*
X1238950Y888443D02*
Y921367D01*
X1140014Y939230D02*
X1221087D01*
X1238950Y921367D01*
X1242950Y890142D02*
Y923024D01*
X1222744Y943230D02*
X1242950Y923024D01*
X1178940Y943230D02*
X1222744D01*
X1246950Y891799D02*
Y924681D01*
X1224401Y947230D02*
X1246950Y924681D01*
X1180597Y947230D02*
X1224401D01*
X1250950Y893456D02*
Y926338D01*
X1226058Y951230D02*
X1250950Y926338D01*
X1182254Y951230D02*
X1226058D01*
X1172718Y955109D02*
Y1040638D01*
Y955109D02*
X1180597Y947230D01*
X1167638Y954532D02*
X1178940Y943230D01*
X1167638Y954532D02*
Y1040061D01*
X1120902Y958342D02*
X1140014Y939230D01*
X1161098Y1052258D02*
X1172718Y1040638D01*
X1160711Y1046988D02*
X1167638Y1040061D01*
X1065022Y1046988D02*
X1160711D01*
X1121220Y1052258D02*
X1161098D01*
X1059942Y1052068D02*
X1065022Y1046988D01*
X1175638Y1077524D02*
X1178052Y1075110D01*
X1117346Y1056132D02*
X1121220Y1052258D01*
X1117346Y1056132D02*
Y1079684D01*
X1059942Y1052068D02*
Y1079684D01*
X1238950Y888443D02*
X1265794Y861599D01*
X1242950Y890142D02*
X1301242Y831850D01*
X1246950Y891799D02*
X1305242Y833507D01*
X1250950Y893456D02*
X1309242Y835164D01*
X1243076Y1176782D02*
Y1197356D01*
X1230630Y1209802D02*
X1243076Y1197356D01*
X1256030Y1209802D02*
X1313942Y1151890D01*
X1138936Y868934D02*
X1250950D01*
X1132586Y862584D02*
X1138936Y868934D01*
X1132586Y833374D02*
Y862584D01*
X1250950Y868934D02*
X1293242Y826642D01*
X1129030Y829818D02*
X1132586Y833374D01*
X1265794Y861202D02*
X1297242Y829754D01*
X1265794Y861202D02*
Y861599D01*
X1401238Y830356D02*
Y870792D01*
X1349756Y922274D02*
X1401238Y870792D01*
X1349756Y922274D02*
Y923036D01*
X1406144Y830356D02*
Y892302D01*
X1375410Y923036D02*
X1406144Y892302D01*
X1375156Y923036D02*
X1375410D01*
X1411238Y830356D02*
Y916672D01*
X1404874Y923036D02*
X1411238Y916672D01*
X1400556Y923036D02*
X1404874D01*
X1598676Y625094D02*
Y633476D01*
X1513652Y921832D02*
X1524830Y910654D01*
X1533652Y921832D02*
X1540830Y914654D01*
X1583118Y848042D02*
X1585214Y850138D01*
X1586484Y844042D02*
X1590294Y847852D01*
X1534668Y844042D02*
X1586484D01*
X1473454Y813140D02*
Y901634D01*
X1473638Y857574D02*
X1490218D01*
X1292860Y736092D02*
X1304798Y748030D01*
X1225964Y736092D02*
X1292860D01*
X1214268Y747788D02*
X1225964Y736092D01*
X1634744Y516382D02*
X1667276D01*
X1667784Y516890D01*
X1637139Y798939D02*
X1638554D01*
X1535176Y704720D02*
Y728980D01*
X1573276Y684784D02*
Y704720D01*
X1547876Y689102D02*
Y704720D01*
X1573530Y675322D02*
X1620266D01*
X1585722Y671322D02*
X1614678D01*
X1573530Y656974D02*
Y675322D01*
X1573276Y656720D02*
X1573530Y656974D01*
X1585722Y656466D02*
Y671322D01*
Y656466D02*
X1585976Y656720D01*
X1522476Y640334D02*
Y656720D01*
X1608652Y546250D02*
Y595500D01*
X1535176D02*
Y656720D01*
X1570532Y595500D02*
Y623012D01*
X1560576Y632968D02*
X1570532Y623012D01*
X1560576Y632968D02*
Y656720D01*
X1573530Y706752D02*
Y755700D01*
X1559560Y676148D02*
X1560576Y675132D01*
X1534922Y656974D02*
Y672084D01*
X1560576Y656720D02*
Y675132D01*
X1534922Y656974D02*
X1535176Y656720D01*
X1547114Y705482D02*
Y755446D01*
X1573530Y793446D02*
Y834066D01*
X1546098Y794462D02*
Y834574D01*
X1473454Y901634D02*
X1493652Y921832D01*
X1473454Y813140D02*
X1473738Y812856D01*
X1461516Y903131D02*
X1489717Y931332D01*
X1461516Y820420D02*
Y903131D01*
X1388952Y747856D02*
X1461516Y820420D01*
X1503152Y931332D02*
X1513652Y941832D01*
X1489717Y931332D02*
X1503152D01*
X1318738Y747856D02*
X1388952D01*
X1456238Y830356D02*
Y904418D01*
X1493652Y941832D01*
X1114876Y829818D02*
X1129030D01*
X1120902Y958342D02*
Y981202D01*
X1309242Y813308D02*
Y835164D01*
Y813308D02*
X1309694Y812856D01*
X1318738D01*
X1306948Y807856D02*
X1318738D01*
X1305242Y809562D02*
X1306948Y807856D01*
X1305242Y809562D02*
Y833507D01*
X1301242Y805757D02*
Y831850D01*
X1297242Y804100D02*
Y829754D01*
X1293242Y802443D02*
Y826642D01*
Y802443D02*
X1302697Y792988D01*
X1297242Y804100D02*
X1303486Y797856D01*
X1301242Y805757D02*
X1304143Y802856D01*
X1318738D01*
X1107694Y994410D02*
X1120902Y981202D01*
X1302697Y792856D02*
X1318738D01*
X1303486Y797856D02*
X1318738D01*
X1093714Y994410D02*
X1107694D01*
X1037590Y971734D02*
X1066800D01*
X1273904Y650034D02*
Y707898D01*
X1066800Y994734D02*
X1067124Y994410D01*
X1038422Y1023112D02*
X1066800Y994734D01*
X1067124Y994410D02*
X1093714D01*
X997154Y1023112D02*
X1038422D01*
X987532Y994734D02*
X1037590D01*
X959154Y1023112D02*
X987532Y994734D01*
X1297178Y757936D02*
X1318658D01*
X1254706Y800408D02*
X1297178Y757936D01*
X1304798Y748030D02*
X1318564D01*
X1059942Y1251662D02*
X1177798D01*
Y1102684D02*
Y1213662D01*
X1117346Y1102938D02*
Y1213662D01*
X1059942Y1102684D02*
Y1213662D01*
X1214268Y790956D02*
Y812788D01*
Y747788D02*
Y790956D01*
X1254706Y817114D02*
Y839924D01*
X1268472Y753114D02*
X1279706Y752860D01*
X1266952Y754634D02*
X1268472Y753114D01*
X1266952Y754634D02*
Y770636D01*
X1254706Y800408D02*
Y817114D01*
X1279706Y752860D02*
X1318480D01*
X1114876Y790956D02*
X1214268D01*
X999694Y805638D02*
Y832612D01*
X996188Y802132D02*
X999694Y805638D01*
X986352Y802132D02*
X996188D01*
X999694Y596342D02*
Y623062D01*
X996950Y593598D02*
X999694Y596342D01*
X984828Y593598D02*
X996950D01*
X999694Y378664D02*
Y404622D01*
X996442Y375412D02*
X999694Y378664D01*
X984320Y375412D02*
X996442D01*
X1473738Y797856D02*
X1484334D01*
X1077214Y1007110D02*
X1093714D01*
X1074420Y1009904D02*
X1077214Y1007110D01*
X1074420Y1009904D02*
Y1018032D01*
X1528318Y837692D02*
X1534668Y844042D01*
X1528318Y797306D02*
Y837692D01*
X1484334Y797856D02*
X1489710Y792480D01*
X1523492D01*
X1528318Y797306D01*
X1516316Y848042D02*
X1583118D01*
X1490218Y834574D02*
X1513586D01*
Y845312D01*
X1516316Y848042D01*
X1519750Y637608D02*
X1522476Y640334D01*
X1509776Y641474D02*
Y656720D01*
Y641474D02*
X1513750Y637500D01*
X1500750Y689102D02*
X1547876D01*
X1488500Y672084D02*
X1534922D01*
X1492500Y676148D02*
X1559560D01*
X1496500Y684784D02*
X1573276D01*
X1273904Y707856D02*
X1318738D01*
X1305750D02*
Y712856D01*
X1318738D01*
X1473804Y772922D02*
X1487578D01*
X1496500Y764000D01*
Y684784D02*
Y764000D01*
X1488301Y777856D02*
X1500750Y765407D01*
X1473738Y777856D02*
X1488301D01*
X1500750Y689102D02*
Y765407D01*
X1473738Y757856D02*
X1488144D01*
X1492500Y753500D01*
Y676148D02*
Y753500D01*
X1473738Y752856D02*
X1487144D01*
X1488500Y751500D01*
Y672084D02*
Y751500D01*
X1371600Y845150D02*
Y861540D01*
Y845150D02*
X1376238Y840512D01*
Y830356D02*
Y840512D01*
X981202Y714196D02*
X1022696D01*
X1029462Y720962D01*
Y916432D01*
X961694Y832612D02*
Y923694D01*
X965048Y927048D01*
X980694D01*
X1022298D01*
X1045464Y950214D01*
X1072134D01*
X961694Y623062D02*
Y709444D01*
X966446Y714196D01*
X981202D01*
X961694Y404622D02*
Y492194D01*
X965250Y495750D01*
X1031250D01*
X1036574Y501074D01*
Y904494D01*
X1202250Y972058D02*
X1305607D01*
X1202500Y995426D02*
X1293553D01*
X1299834Y983488D02*
X1325614Y957708D01*
X1189990Y983488D02*
X1299834D01*
X1590422Y762636D02*
X1661886D01*
X1678876Y779626D01*
Y853758D01*
X1533398Y778256D02*
X1660006D01*
X1663954Y782204D01*
Y810141D01*
X1538732Y773176D02*
X1661176D01*
X1674876Y786876D01*
Y832104D01*
X1620266Y654734D02*
Y675322D01*
Y654734D02*
X1682242Y592758D01*
Y548386D02*
Y592758D01*
X1614678Y653572D02*
Y671322D01*
Y653572D02*
X1667760Y600490D01*
Y572266D02*
Y600490D01*
X1513750Y549250D02*
X1534500Y528500D01*
X1615250D01*
X1654560Y489190D01*
X1519750Y551000D02*
X1538250Y532500D01*
X1618626D01*
X1634744Y516382D01*
X1585652Y546250D02*
Y612070D01*
X1598676Y625094D01*
X1496500Y546250D02*
Y595750D01*
D34*
X1530625Y520250D02*
X1541624Y509250D01*
X1461750Y520250D02*
X1530625D01*
X1439500Y542500D02*
X1461750Y520250D01*
X1294748Y542500D02*
X1439500D01*
X1623500Y509250D02*
X1656754Y475996D01*
X1541624Y509250D02*
X1623500D01*
X1039368Y1049782D02*
X1047162Y1041988D01*
X1039368Y1049782D02*
Y1081024D01*
X1028244Y1092148D02*
X1039368Y1081024D01*
X980440Y1092148D02*
X1028244D01*
X1047162Y1041988D02*
X1115488D01*
X1482598Y999236D02*
X1489964Y1006602D01*
X1400556Y999236D02*
X1482598D01*
X1722628Y437134D02*
Y877316D01*
X1709565Y890379D02*
X1722628Y877316D01*
X1689354Y890379D02*
X1709565D01*
X1719072Y433578D02*
X1722628Y437134D01*
X1646682Y433578D02*
X1719072D01*
X1643126Y437134D02*
X1646682Y433578D01*
X1123188Y1007110D02*
Y1034288D01*
Y1007110D02*
X1149614D01*
X1115488Y1041988D02*
X1123188Y1034288D01*
X1694040Y475996D02*
X1694784Y476740D01*
X1066800Y971734D02*
X1091876Y946658D01*
Y829818D02*
Y946658D01*
Y790956D02*
Y829818D01*
X1131640Y968502D02*
X1148334D01*
Y993130D01*
X1094162Y982980D02*
X1108640Y968502D01*
X945642Y982980D02*
X1094162D01*
X945642Y366522D02*
Y982980D01*
X1244092Y262382D02*
Y278638D01*
X1049274Y359664D02*
X1063498Y345440D01*
Y277876D02*
Y345440D01*
Y277876D02*
X1078992Y262382D01*
X952500Y359664D02*
X1049274D01*
X1078992Y262382D02*
X1244092D01*
X1109796Y707898D02*
Y763708D01*
X1091876Y781628D02*
X1109796Y763708D01*
X1091876Y781628D02*
Y790956D01*
X1086796Y707898D02*
Y747642D01*
X945896Y593598D02*
X961828D01*
X945642Y366522D02*
X952500Y359664D01*
X961320Y360356D02*
Y375412D01*
X945642Y802132D02*
X963352D01*
X1258824Y578424D02*
X1294748Y542500D01*
X1656754Y475996D02*
X1694040D01*
X1495806Y499872D02*
X1621378D01*
X1643126Y478124D01*
Y437134D02*
Y478124D01*
D35*
X1306644Y722856D02*
X1335250D01*
X1300266Y729234D02*
X1306644Y722856D01*
X1602232Y402336D02*
Y423214D01*
X1303514Y767856D02*
X1318738D01*
X1366238Y812772D02*
Y830356D01*
X1365504Y812038D02*
X1366238Y812772D01*
X1342644Y812038D02*
X1365504D01*
X1341238Y813444D02*
X1342644Y812038D01*
X1341238Y813444D02*
Y830356D01*
X1509776Y704720D02*
Y729742D01*
X1598676Y633476D02*
Y656720D01*
X1560576Y704720D02*
Y728472D01*
X1451238Y675356D02*
Y684648D01*
X1456238Y675356D02*
Y692602D01*
X1346238Y675356D02*
Y694982D01*
X1473738Y807856D02*
X1489338D01*
X1490218Y808736D01*
X1336238Y801314D02*
Y830356D01*
X1334718Y799794D02*
X1336238Y801314D01*
X1334718Y787856D02*
Y799794D01*
X1318738Y762856D02*
X1335024D01*
X1318738Y787856D02*
X1334718D01*
X1490218Y808736D02*
Y834574D01*
X1473738Y802856D02*
X1513332D01*
X1547876Y639374D02*
Y656720D01*
Y639374D02*
X1553500Y633750D01*
Y624250D02*
Y633750D01*
X1473750Y546250D02*
Y596750D01*
X1293856Y717856D02*
X1318738D01*
X1248984Y729234D02*
X1300266D01*
X1245000Y725250D02*
X1248984Y729234D01*
X1245000Y707994D02*
Y725250D01*
X1244904Y707994D02*
X1245000D01*
X1341238Y653000D02*
Y673856D01*
D36*
X1291350Y278638D02*
Y314720D01*
Y278638D02*
X1368806D01*
X1100328Y296418D02*
X1136180D01*
X1100328Y316992D02*
X1156754D01*
X1100328Y337566D02*
X1158964D01*
X1100328Y358140D02*
X1138390D01*
X1180338Y644384D02*
X1251206D01*
X1244150Y644878D02*
Y676148D01*
X1165874Y644384D02*
X1180338D01*
X1158748Y651510D02*
X1165874Y644384D01*
X1132582Y651510D02*
X1158748D01*
X1132582Y674510D02*
Y706878D01*
X1180338Y674384D02*
Y707644D01*
X1102106Y651510D02*
X1132582D01*
X1068582D02*
X1102106D01*
Y573074D02*
Y651510D01*
X1124662Y747776D02*
X1169256D01*
X1132582Y482596D02*
Y628510D01*
X1133918Y578424D02*
X1258824D01*
X1103884Y482296D02*
X1132282D01*
X1109796Y707898D02*
X1244808D01*
X1244904Y707994D01*
D37*
X1168146Y398526D02*
Y421584D01*
Y328384D02*
Y398526D01*
X1073912D02*
X1168146D01*
X980694Y442990D02*
Y469900D01*
Y442990D02*
X1142746D01*
X980186Y470408D02*
X980694Y469900D01*
X1142746Y421584D02*
Y442990D01*
X1206246Y421584D02*
Y456000D01*
Y421584D02*
X1284534D01*
X1244092Y278638D02*
X1261350D01*
X1245108Y345948D02*
X1367536D01*
X1193546Y395478D02*
X1244092D01*
Y278638D02*
Y395224D01*
X1073912Y398526D02*
Y412990D01*
X1258824Y422402D02*
Y491424D01*
X1103884Y443484D02*
Y482296D01*
X1291590Y383540D02*
Y414528D01*
X1284534Y421584D02*
X1291590Y414528D01*
D38*
X1384300Y491744D02*
Y511352D01*
X1350010Y419100D02*
X1414018D01*
X1384300Y422352D02*
Y441744D01*
X1103884Y544652D02*
Y571296D01*
Y482296D02*
Y509652D01*
X1350010Y363474D02*
Y419100D01*
X1461820Y466902D02*
Y499872D01*
X1414018Y419100D02*
X1461820Y466902D01*
X1368806Y278638D02*
X1498092D01*
X1461820Y499872D02*
X1495806D01*
X1418500Y319750D02*
X1445250D01*
X1459138Y333638D01*
X1498092D01*
X1426500Y370750D02*
Y371000D01*
X1486792Y431292D01*
X1495806D01*
X1498092Y333638D02*
X1591056D01*
X1590802Y333892D02*
X1591056Y333638D01*
X1350010Y363474D02*
X1367536Y345948D01*
Y324358D02*
Y345948D01*
D39*
X1440688Y695198D02*
X1451238Y684648D01*
D40*
X1193546Y395478D02*
Y421584D01*
X1180846D02*
Y453968D01*
D41*
X1498092Y333638D02*
D03*
X1590548Y333638D02*
D03*
D42*
X1498092Y278638D02*
D03*
X1590548D02*
D03*
D43*
X980440Y495756D02*
D03*
Y470408D02*
D03*
X981202Y714196D02*
D03*
Y688848D02*
D03*
X980694Y927048D02*
D03*
Y901700D02*
D03*
X980440Y1092148D02*
D03*
Y1066800D02*
D03*
D44*
Y521104D02*
D03*
X981202Y739544D02*
D03*
X980694Y952396D02*
D03*
X980440Y1117496D02*
D03*
D45*
X1418500Y319750D02*
D03*
X1426500Y370750D02*
D03*
D46*
X1169268Y747788D02*
D03*
D47*
X1214268D02*
D03*
X1169268Y812788D02*
D03*
X1214268D02*
D03*
X1158760Y868532D02*
D03*
X1223760Y913532D02*
D03*
Y868532D02*
D03*
X1400556Y999236D02*
D03*
Y923036D02*
D03*
X1375156Y999236D02*
D03*
Y923036D02*
D03*
X1349756D02*
D03*
X1324356D02*
D03*
X1349756Y999236D02*
D03*
X1324356D02*
D03*
D48*
X1158760Y913532D02*
D03*
D49*
X1256030Y1209802D02*
D03*
D50*
X1230630Y1184402D02*
D03*
X1256030D02*
D03*
X1230630Y1209802D02*
D03*
X1384300Y441744D02*
D03*
Y491744D02*
D03*
X1103630Y509652D02*
D03*
X1103884Y544652D02*
D03*
D51*
X1504442Y1113536D02*
D03*
X1517142Y1138936D02*
D03*
X1529842Y1113536D02*
D03*
X1344168D02*
D03*
X1356868Y1138936D02*
D03*
X1369568Y1113536D02*
D03*
X1621028Y1083818D02*
D03*
X1646428Y1096518D02*
D03*
X1621028Y1109218D02*
D03*
D52*
X1542542Y1138936D02*
D03*
X1382268D02*
D03*
D53*
X1485392Y1202436D02*
D03*
X1561592D02*
D03*
X1325118D02*
D03*
X1401318D02*
D03*
X1709928Y1052068D02*
D03*
Y1128268D02*
D03*
D54*
X1248222Y1105154D02*
D03*
D55*
X1268222D02*
D03*
D56*
X980194Y307006D02*
D03*
X979940Y1216994D02*
D03*
X1730222Y307006D02*
D03*
X1730210Y1217060D02*
D03*
D57*
X1533652Y941832D02*
D03*
D58*
X1493652Y921832D02*
D03*
Y941832D02*
D03*
X1513652Y921832D02*
D03*
Y941832D02*
D03*
X1533652Y921832D02*
D03*
D59*
X1667784Y572290D02*
D03*
Y544590D02*
D03*
Y489190D02*
D03*
Y516890D02*
D03*
X1696184Y475340D02*
D03*
Y503040D02*
D03*
Y530740D02*
D03*
Y558440D02*
D03*
D60*
X1667784Y461490D02*
D03*
D61*
X1681984Y391940D02*
D03*
Y641840D02*
D03*
X1663954Y721868D02*
D03*
Y972058D02*
D03*
D62*
X1646428Y1071118D02*
D03*
D63*
X1689354Y798939D02*
D03*
Y821799D02*
D03*
Y844659D02*
D03*
Y867519D02*
D03*
Y890379D02*
D03*
X1663954Y810369D02*
D03*
Y833229D02*
D03*
Y856089D02*
D03*
Y878949D02*
D03*
Y901809D02*
D03*
X1638554Y798939D02*
D03*
Y821799D02*
D03*
Y844659D02*
D03*
Y867519D02*
D03*
D64*
Y890379D02*
D03*
D65*
X1489964Y1006602D02*
D03*
X1381238Y849108D02*
D03*
X1371600Y861540D02*
D03*
X1350772Y861798D02*
D03*
X1361238Y849578D02*
D03*
X1100328Y358140D02*
D03*
Y337566D02*
D03*
Y316992D02*
D03*
Y296418D02*
D03*
X1559814Y1086358D02*
D03*
X1560068Y999744D02*
D03*
X1477264Y1063752D02*
D03*
X1602232Y402336D02*
D03*
X1522476Y737870D02*
D03*
X1605026Y729488D02*
D03*
X1585976Y729234D02*
D03*
X1535176Y728980D02*
D03*
X1123188Y1007110D02*
D03*
X1072134Y950214D02*
D03*
Y915924D02*
D03*
Y934720D02*
D03*
X1189990Y983488D02*
D03*
X1190244Y1007110D02*
D03*
X1372870Y1051560D02*
D03*
X1341250Y653000D02*
D03*
X1300000Y767500D02*
D03*
X1365504Y812546D02*
D03*
X1509776Y729742D02*
D03*
X1598676Y633476D02*
D03*
X1560576Y728472D02*
D03*
X1440688Y695198D02*
D03*
X1456238Y692602D02*
D03*
X1346238Y694982D02*
D03*
X1335024Y762856D02*
D03*
X1334718Y787856D02*
D03*
X1334750Y722856D02*
D03*
X1086866Y1251712D02*
D03*
X1145540Y1251662D02*
D03*
X1102106Y651510D02*
D03*
X1255014Y840232D02*
D03*
X1266952Y770636D02*
D03*
X1074420Y1018032D02*
D03*
X1553500Y624250D02*
D03*
X1473750Y596750D02*
D03*
X1293856Y717856D02*
D03*
X1202500Y995426D02*
D03*
X1202250Y972058D02*
D03*
M02*
