M48
;Layer_Color=9474304
;FILE_FORMAT=4:4
METRIC,TZ
;TYPE=PLATED
T1F00S00C0.7000
T2F00S00C0.9000
T3F00S00C1.1000
T4F00S00C1.3000
T5F00S00C1.6000
T6F00S00C3.2000
%
T01
X1100328Y296418
Y316992
Y337566
Y358140
X1602232Y402336
X1598676Y633476
X1605026Y729488
X1585976Y729234
X1560576Y728472
X1535176Y728980
X1522476Y737870
X1509776Y729742
X1456238Y692602
X1440688Y695198
X1346238Y694982
X1334750Y722856
X1335024Y762856
X1334718Y787856
X1300000Y767500
X1266952Y770636
X1293856Y717856
X1341250Y653000
X1473750Y596750
X1553500Y624250
X1102106Y651510
X1072134Y915924
Y934720
Y950214
X1074420Y1018032
X1123188Y1007110
X1190244
X1189990Y983488
X1202250Y972058
X1202500Y995426
X1248222Y1105154
X1268222
X1372870Y1051560
X1477264Y1063752
X1489964Y1006602
X1560068Y999744
X1559814Y1086358
X1371600Y861540
X1350772Y861798
X1361238Y849578
X1381238Y849108
X1365504Y812546
X1255014Y840232
X1145540Y1251662
X1086866Y1251712
T02
X1418500Y319750
X1426500Y370750
X1384300Y441744
Y491744
X1103630Y509652
X1103884Y544652
X1493652Y921832
Y941832
X1513652
X1533652
Y921832
X1513652
X1638554Y890379
Y867519
Y844659
Y821799
Y798939
X1663954Y810369
Y833229
Y856089
Y878949
Y901809
X1689354Y890379
Y867519
Y844659
Y821799
Y798939
T03
X1667784Y461490
Y489190
Y516890
Y544590
Y572290
X1696184Y558440
Y530740
Y503040
Y475340
X1400556Y923036
X1375156
X1349756
X1324356
Y999236
X1349756
X1375156
X1400556
X1369568Y1113536
X1344168
X1356868Y1138936
X1382268
X1517142
X1542542
X1529842Y1113536
X1504442
X1256030Y1184402
X1230630
X1621028Y1109218
Y1083818
X1646428Y1071118
Y1096518
X1256030Y1209802
X1230630
T04
X1214268Y747788
X1169268
X981202Y739544
Y714196
Y688848
X980440Y521104
Y495756
Y470408
X980694Y901700
Y927048
Y952396
X980440Y1066800
Y1092148
Y1117496
X1158760Y913532
Y868532
X1169268Y812788
X1214268
X1223760Y868532
Y913532
T05
X1498092Y278638
Y333638
X1590548Y333638
Y278638
T06
X980194Y307006
X1730222
X1681984Y391940
Y641840
X1663954Y721868
Y972058
X1730210Y1217060
X979940Y1216994
M30
